<mxfile host="app.diagrams.net" modified="2022-02-07T05:38:22.640Z" agent="5.0 (X11; Linux x86_64) AppleWebKit/537.36 (KHTML, like Gecko) Chrome/97.0.4692.99 Safari/537.36" etag="Ev58pVlkVIp9-aefSsa2" version="16.4.5" type="github">
  <diagram id="8frhf79nn8YTgEJAi2eT" name="Page-1">
    <mxGraphModel dx="1206" dy="496" grid="1" gridSize="10" guides="1" tooltips="1" connect="1" arrows="1" fold="1" page="1" pageScale="1" pageWidth="827" pageHeight="1169" math="0" shadow="0">
      <root>
        <mxCell id="0" />
        <mxCell id="1" parent="0" />
        <mxCell id="p4Bf5kmRMm0EGtYavTZ9-1" value="" style="rounded=0;whiteSpace=wrap;html=1;" vertex="1" parent="1">
          <mxGeometry x="30" y="30" width="370" height="440" as="geometry" />
        </mxCell>
        <mxCell id="p4Bf5kmRMm0EGtYavTZ9-2" value="&lt;font style=&quot;font-size: 24px&quot;&gt;加載3d戰鬥動畫&lt;/font&gt;" style="rounded=1;whiteSpace=wrap;html=1;" vertex="1" parent="1">
          <mxGeometry x="60" y="60" width="310" height="60" as="geometry" />
        </mxCell>
        <mxCell id="p4Bf5kmRMm0EGtYavTZ9-3" value="360度拖拽視角（model 或者 animation）" style="rounded=1;whiteSpace=wrap;html=1;fontSize=24;" vertex="1" parent="1">
          <mxGeometry x="60" y="140" width="310" height="60" as="geometry" />
        </mxCell>
      </root>
    </mxGraphModel>
  </diagram>
</mxfile>
